<svg xmlns="http://www.w3.org/2000/svg" width="20.639" height="20.639" viewBox="0 0 20.639 20.639">
  <defs>
    <style>
      .cls-1 {
        fill: #00e6f6;
      }
    </style>
  </defs>
  <path id="чбошод" class="cls-1" d="M13.389,0A10.319,10.319,0,1,0,23.708,10.319,10.319,10.319,0,0,0,13.389,0Zm5.077,7.791-4.852,6.548a1.307,1.307,0,0,1-1.68.4l-3.489-2.41A1.086,1.086,0,0,1,8,10.8a1.3,1.3,0,0,1,1.682-.4c1.163.8,2.572,1.777,2.572,1.777Q14.3,9.421,16.342,6.665C17.221,5.478,19.352,6.595,18.465,7.791Z" transform="translate(-3.069)"/>
</svg>
